<?xml version="1.0" encoding="utf-8"?>
<!-- Generator: Circuit Diagram 3.1.0  (Build 3), cdlibrary.dll 1.0.0.0 -->
<!DOCTYPE svg PUBLIC "-//W3C//DTD SVG 1.1//EN" "http://www.w3.org/Graphics/SVG/1.1/DTD/svg11.dtd">
<svg version="1.1" width="640" height="480" xmlns="http://www.w3.org/2000/svg">
  <line x1="180" y1="190" x2="180" y2="211" style="stroke:rgb(0,0,0);stroke-linecap:square;stroke-width:2" />
  <line x1="180" y1="219" x2="180" y2="240" style="stroke:rgb(0,0,0);stroke-linecap:square;stroke-width:2" />
  <line x1="166" y1="211" x2="194" y2="211" style="stroke:rgb(0,0,0);stroke-linecap:square;stroke-width:2" />
  <line x1="166" y1="219" x2="194" y2="219" style="stroke:rgb(0,0,0);stroke-linecap:square;stroke-width:2" />
  <text x="160" y="215" style="font-family:Arial;font-size:10;text-anchor:end" dy=".3em" />
  <line x1="100" y1="160" x2="105" y2="160" style="stroke:rgb(0,0,0);stroke-linecap:square;stroke-width:2" />
  <rect x="105" y="152" width="40" height="16" style="fill-opacity:0;stroke:rgb(0,0,0);stroke-width:2" />
  <line x1="145" y1="160" x2="150" y2="160" style="stroke:rgb(0,0,0);stroke-linecap:square;stroke-width:2" />
  <text x="125" y="143" style="font-family:Arial;font-size:10;text-anchor:middle" dy=".3em" />
  <line x1="80" y1="210" x2="80" y2="212" style="stroke:rgb(0,0,0);stroke-linecap:square;stroke-width:2" />
  <line x1="70" y1="212" x2="90" y2="212" style="stroke:rgb(0,0,0);stroke-linecap:square;stroke-width:2" />
  <line x1="75" y1="218" x2="85" y2="218" style="stroke:rgb(0,0,0);stroke-linecap:square;stroke-width:3" />
  <line x1="80" y1="218" x2="80" y2="220" style="stroke:rgb(0,0,0);stroke-linecap:square;stroke-width:2" />
  <text x="66" y="215" style="font-family:Arial;font-size:12;text-anchor:end" dy=".3em">+5V</text>
  <line x1="80" y1="160" x2="80" y2="210" style="stroke:rgb(0,0,0);stroke-linecap:square;stroke-width:2" />
  <line x1="80" y1="160" x2="100" y2="160" style="stroke:rgb(0,0,0);stroke-linecap:square;stroke-width:2" />
  <line x1="150" y1="160" x2="180" y2="160" style="stroke:rgb(0,0,0);stroke-linecap:square;stroke-width:2" />
  <line x1="180" y1="160" x2="180" y2="190" style="stroke:rgb(0,0,0);stroke-linecap:square;stroke-width:2" />
  <line x1="180" y1="240" x2="180" y2="270" style="stroke:rgb(0,0,0);stroke-linecap:square;stroke-width:2" />
  <line x1="80" y1="270" x2="180" y2="270" style="stroke:rgb(0,0,0);stroke-linecap:square;stroke-width:2" />
  <line x1="80" y1="220" x2="80" y2="270" style="stroke:rgb(0,0,0);stroke-linecap:square;stroke-width:2" />
</svg>