<?xml version="1.0" encoding="utf-8"?>
<!-- Generator: Circuit Diagram 3.1.0  (Build 3), cdlibrary.dll 1.0.0.0 -->
<!DOCTYPE svg PUBLIC "-//W3C//DTD SVG 1.1//EN" "http://www.w3.org/Graphics/SVG/1.1/DTD/svg11.dtd">
<svg version="1.1" width="510" height="250" xmlns="http://www.w3.org/2000/svg">
  <line x1="90" y1="90" x2="90" y2="92" style="stroke:rgb(0,0,0);stroke-linecap:square;stroke-width:2" />
  <line x1="80" y1="92" x2="100" y2="92" style="stroke:rgb(0,0,0);stroke-linecap:square;stroke-width:2" />
  <line x1="85" y1="98" x2="95" y2="98" style="stroke:rgb(0,0,0);stroke-linecap:square;stroke-width:3" />
  <line x1="90" y1="98" x2="90" y2="100" style="stroke:rgb(0,0,0);stroke-linecap:square;stroke-width:2" />
  <text x="76" y="95" style="font-family:Arial;font-size:12;text-anchor:end" dy=".3em">+5V</text>
  <line x1="90" y1="40" x2="90" y2="45" style="stroke:rgb(0,0,0);stroke-linecap:square;stroke-width:2" />
  <rect x="82" y="45" width="16" height="40" style="fill-opacity:0;stroke:rgb(0,0,0);stroke-width:2" />
  <line x1="90" y1="85" x2="90" y2="90" style="stroke:rgb(0,0,0);stroke-linecap:square;stroke-width:2" />
  <text x="76" y="65" style="font-family:Arial;font-size:10;text-anchor:end" dy=".3em">1 Ω</text>
  <line x1="180" y1="70" x2="180" y2="75" style="stroke:rgb(0,0,0);stroke-linecap:square;stroke-width:2" />
  <rect x="172" y="75" width="16" height="40" style="fill-opacity:0;stroke:rgb(0,0,0);stroke-width:2" />
  <line x1="180" y1="115" x2="180" y2="120" style="stroke:rgb(0,0,0);stroke-linecap:square;stroke-width:2" />
  <text x="166" y="95" style="font-family:Arial;font-size:10;text-anchor:end" dy=".3em">1 kΩ</text>
  <line x1="90" y1="10" x2="90" y2="40" style="stroke:rgb(0,0,0);stroke-linecap:square;stroke-width:2" />
  <line x1="90" y1="10" x2="180" y2="10" style="stroke:rgb(0,0,0);stroke-linecap:square;stroke-width:2" />
  <line x1="180" y1="10" x2="180" y2="70" style="stroke:rgb(0,0,0);stroke-linecap:square;stroke-width:2" />
  <line x1="180" y1="120" x2="180" y2="170" style="stroke:rgb(0,0,0);stroke-linecap:square;stroke-width:2" />
  <line x1="180" y1="170" x2="180" y2="180" style="stroke:rgb(0,0,0);stroke-linecap:square;stroke-width:2" />
  <line x1="90" y1="180" x2="180" y2="180" style="stroke:rgb(0,0,0);stroke-linecap:square;stroke-width:2" />
  <line x1="90" y1="100" x2="90" y2="180" style="stroke:rgb(0,0,0);stroke-linecap:square;stroke-width:2" />
  <line x1="40" y1="30" x2="40" y2="110" style="stroke:rgb(0,0,0);stroke-linecap:square;stroke-width:2" />
  <line x1="40" y1="110" x2="120" y2="110" style="stroke:rgb(0,0,0);stroke-linecap:square;stroke-width:2" />
  <line x1="120" y1="30" x2="120" y2="110" style="stroke:rgb(0,0,0);stroke-linecap:square;stroke-width:2" />
  <line x1="40" y1="30" x2="120" y2="30" style="stroke:rgb(0,0,0);stroke-linecap:square;stroke-width:2" />
  <line x1="290" y1="30" x2="370" y2="30" style="stroke:rgb(0,0,0);stroke-linecap:square;stroke-width:2" />
  <line x1="370" y1="30" x2="370" y2="110" style="stroke:rgb(0,0,0);stroke-linecap:square;stroke-width:2" />
  <line x1="290" y1="110" x2="370" y2="110" style="stroke:rgb(0,0,0);stroke-linecap:square;stroke-width:2" />
  <line x1="290" y1="30" x2="290" y2="110" style="stroke:rgb(0,0,0);stroke-linecap:square;stroke-width:2" />
  <line x1="340" y1="100" x2="340" y2="180" style="stroke:rgb(0,0,0);stroke-linecap:square;stroke-width:2" />
  <line x1="340" y1="180" x2="430" y2="180" style="stroke:rgb(0,0,0);stroke-linecap:square;stroke-width:2" />
  <line x1="430" y1="170" x2="430" y2="180" style="stroke:rgb(0,0,0);stroke-linecap:square;stroke-width:2" />
  <line x1="430" y1="120" x2="430" y2="170" style="stroke:rgb(0,0,0);stroke-linecap:square;stroke-width:2" />
  <line x1="430" y1="10" x2="430" y2="70" style="stroke:rgb(0,0,0);stroke-linecap:square;stroke-width:2" />
  <line x1="340" y1="10" x2="430" y2="10" style="stroke:rgb(0,0,0);stroke-linecap:square;stroke-width:2" />
  <line x1="340" y1="10" x2="340" y2="40" style="stroke:rgb(0,0,0);stroke-linecap:square;stroke-width:2" />
  <line x1="430" y1="70" x2="430" y2="75" style="stroke:rgb(0,0,0);stroke-linecap:square;stroke-width:2" />
  <rect x="422" y="75" width="16" height="40" style="fill-opacity:0;stroke:rgb(0,0,0);stroke-width:2" />
  <line x1="430" y1="115" x2="430" y2="120" style="stroke:rgb(0,0,0);stroke-linecap:square;stroke-width:2" />
  <text x="416" y="95" style="font-family:Arial;font-size:10;text-anchor:end" dy=".3em">10 Ω</text>
  <line x1="340" y1="40" x2="340" y2="45" style="stroke:rgb(0,0,0);stroke-linecap:square;stroke-width:2" />
  <rect x="332" y="45" width="16" height="40" style="fill-opacity:0;stroke:rgb(0,0,0);stroke-width:2" />
  <line x1="340" y1="85" x2="340" y2="90" style="stroke:rgb(0,0,0);stroke-linecap:square;stroke-width:2" />
  <text x="326" y="65" style="font-family:Arial;font-size:10;text-anchor:end" dy=".3em">1 Ω</text>
  <line x1="340" y1="90" x2="340" y2="92" style="stroke:rgb(0,0,0);stroke-linecap:square;stroke-width:2" />
  <line x1="330" y1="92" x2="350" y2="92" style="stroke:rgb(0,0,0);stroke-linecap:square;stroke-width:2" />
  <line x1="335" y1="98" x2="345" y2="98" style="stroke:rgb(0,0,0);stroke-linecap:square;stroke-width:3" />
  <line x1="340" y1="98" x2="340" y2="100" style="stroke:rgb(0,0,0);stroke-linecap:square;stroke-width:2" />
  <text x="326" y="95" style="font-family:Arial;font-size:12;text-anchor:end" dy=".3em">+5V</text>
  <text x="120" y="200" style="font-family:Arial;font-size:10;text-anchor:middle" dy=".3em">Vr = 5V * 1000/1001 = ~4.995V</text>
  <text x="380" y="200" style="font-family:Arial;font-size:10;text-anchor:middle" dy=".3em">Vr = 5V * 1000/1001 = ~4.54V</text>
  <text x="250" y="220" style="font-family:Arial;font-size:10;text-anchor:middle" dy=".3em">The internal resistance in series with the load across the battery acts as a voltage divider, so we can see that</text>
  <text x="250" y="230" style="font-family:Arial;font-size:10;text-anchor:middle" dy=".3em">the voltage produced by the battery, because of the internal resistance, varies depending on the load across it!</text>
</svg>