<svg viewBox="0 0 200 200" xmlns="http://www.w3.org/2000/svg">
  <!-- Background circle -->
  <circle cx="100" cy="100" r="95" fill="none" stroke="#2c3e50" stroke-width="3"/>
  
  <!-- Circuit board pattern in background -->
  <g opacity="0.4" stroke="#3498db" stroke-width="2" fill="none">
    <!-- Horizontal traces -->
    <line x1="20" y1="40" x2="60" y2="40"/>
    <line x1="140" y1="40" x2="180" y2="40"/>
    
    <line x1="20" y1="70" x2="50" y2="70"/>
    <line x1="150" y1="70" x2="180" y2="70"/>
    
    <line x1="20" y1="130" x2="50" y2="130"/>
    <line x1="150" y1="130" x2="180" y2="130"/>
    
    <line x1="20" y1="160" x2="60" y2="160"/>
    <line x1="140" y1="160" x2="180" y2="160"/>
    
    <!-- Vertical traces -->
    <line x1="60" y1="30" x2="60" y2="70"/>
    <line x1="140" y1="30" x2="140" y2="70"/>
    <line x1="50" y1="70" x2="50" y2="85"/>
    <line x1="150" y1="70" x2="150" y2="85"/>
    <line x1="50" y1="115" x2="50" y2="130"/>
    <line x1="150" y1="115" x2="150" y2="130"/>
    <line x1="60" y1="130" x2="60" y2="170"/>
    <line x1="140" y1="130" x2="140" y2="170"/>
    
    <!-- Connection pads (small circles) -->
    <circle cx="60" cy="40" r="3" fill="#3498db"/>
    <circle cx="140" cy="40" r="3" fill="#3498db"/>
    <circle cx="50" cy="70" r="3" fill="#3498db"/>
    <circle cx="60" cy="70" r="3" fill="#3498db"/>
    <circle cx="140" cy="70" r="3" fill="#3498db"/>
    <circle cx="150" cy="70" r="3" fill="#3498db"/>
    <circle cx="50" cy="130" r="3" fill="#3498db"/>
    <circle cx="60" cy="130" r="3" fill="#3498db"/>
    <circle cx="140" cy="130" r="3" fill="#3498db"/>
    <circle cx="150" cy="130" r="3" fill="#3498db"/>
    <circle cx="60" cy="160" r="3" fill="#3498db"/>
    <circle cx="140" cy="160" r="3" fill="#3498db"/>
    
    <!-- Component shapes (rectangles) -->
    <rect x="25" y="65" width="15" height="10" fill="none" stroke="#2ecc71" stroke-width="1.5"/>
    <rect x="160" y="65" width="15" height="10" fill="none" stroke="#2ecc71" stroke-width="1.5"/>
    <rect x="25" y="155" width="15" height="10" fill="none" stroke="#2ecc71" stroke-width="1.5"/>
    <rect x="160" y="155" width="15" height="10" fill="none" stroke="#2ecc71" stroke-width="1.5"/>
  </g>
  
  <!-- More subtle circuit lines behind text -->
  <g opacity="0.15" stroke="#3498db" stroke-width="1.5" fill="none">
    <line x1="20" y1="100" x2="180" y2="100"/>
    <line x1="100" y1="20" x2="100" y2="180"/>
  </g>
  
  <!-- Main "JEH" text -->
  <text x="100" y="90" font-family="'Courier New', monospace" font-size="42" font-weight="bold" fill="#2980b9" text-anchor="middle">JEH</text>
  
  <!-- "TECH" text with tech-style bracket notation -->
  <g>
    <text x="100" y="125" font-family="'Courier New', monospace" font-size="28" font-weight="normal" fill="#2c3e50" text-anchor="middle">TECH</text>
    <text x="48" y="125" font-family="'Courier New', monospace" font-size="28" font-weight="bold" fill="#e74c3c" text-anchor="middle">&lt;</text>
    <text x="152" y="125" font-family="'Courier New', monospace" font-size="28" font-weight="bold" fill="#e74c3c" text-anchor="middle">/&gt;</text>
  </g>
  
  <!-- Decorative code-like elements -->
  <g opacity="0.6">
    <text x="100" y="150" font-family="'Courier New', monospace" font-size="10" fill="#7f8c8d" text-anchor="middle">// knowledge_base</text>
  </g>
</svg>